# xmcd
#
# Track frame offsets:
#	150
#	12328
#	25593
#	38462
#	50708
#	63342
#	75794
#	88526
#	102216
#	115044
#	127768
#	139789
#	150727
#	163034
#	173642
#	185060
#	196983
#	209165
#	223139
#	236494
#	249616
#	261171
#	273760
#	285748
#
# Disc length: 3962 seconds
#
# Revision: 3
# Processed by: cddbd v1.5.2PL0 Copyright (c) Steve Scherf et al.
# Submitted via: EasyCDDAExtractor 16.0.1.1
#
DISCID=470f7818
DTITLE=Wilf Carter [Monana Slim] - A Canadian Legend [Bear Family] Disc 1
DYEAR=1944
DGENRE=Country
TTITLE0=Farewell, Sweetheart, Farewell (1944)
TTITLE1=Old Shep (1944)
TTITLE2=I've Hung Up My Chaps And Saddle (1944)
TTITLE3=You'll Get Use To It (1944)
TTITLE4=I Ain't Gonna Hobo No More (1944)
TTITLE5=Don't Be Mean, I Wasn't Mean To You (1944)
TTITLE6=A Sinner's Prayer (1944)
TTITLE7=Plant Some Flowers On My Grave (1944)
TTITLE8=There's A Gold Star In Her Window (1944)
TTITLE9=My Blue Skies (1944)
TTITLE10=Put Me In Your Pocket (1944)
TTITLE11=Smilin' Thru' Tears (1944)
TTITLE12=Born To Lose (1944)
TTITLE13=No Letter Today (1944)
TTITLE14=Our Canadian Flag (1944)
TTITLE15=So Hard To Start (1944)
TTITLE16=I'll Never Die Of A Broken Heart (1944)
TTITLE17=Dreaming Of My Blue Eyes (1944)
TTITLE18=Memories Bring Heartaches To Me (1944)
TTITLE19=My Queen Of The Prairies (1944)
TTITLE20=Rye Whiskey (1947)
TTITLE21=One Golden Curl (1948)
TTITLE22=Hang The Key On The Bunkhouse Door (1947)
TTITLE23=I'm A Fool For Foolin' Around (1948)
EXTD=
EXTT0=
EXTT1=
EXTT2=
EXTT3=
EXTT4=
EXTT5=
EXTT6=
EXTT7=
EXTT8=
EXTT9=
EXTT10=
EXTT11=
EXTT12=
EXTT13=
EXTT14=
EXTT15=
EXTT16=
EXTT17=
EXTT18=
EXTT19=
EXTT20=
EXTT21=
EXTT22=
EXTT23=
PLAYORDER=
